<?xml version="1.0" encoding="iso-8859-1"?>
<!-- Generator: Adobe Illustrator 18.0.0, SVG Export Plug-In . SVG Version: 6.00 Build 0)  -->
<!DOCTYPE svg PUBLIC "-//W3C//DTD SVG 1.1//EN" "http://www.w3.org/Graphics/SVG/1.1/DTD/svg11.dtd">
<svg xmlns="http://www.w3.org/2000/svg" xmlns:xlink="http://www.w3.org/1999/xlink" version="1.1" id="Capa_1" x="0px" y="0px" viewBox="0 0 60 60" style="enable-background:new 0 0 60 60;" xml:space="preserve" width="512px" height="512px">
<g>
	<path d="M52.179,42.429l-5.596,8.04l-3.949-3.241c-0.426-0.351-1.057-0.287-1.407,0.138c-0.351,0.427-0.289,1.058,0.139,1.407   l4.786,3.929c0.18,0.148,0.404,0.228,0.634,0.228c0.045,0,0.091-0.003,0.137-0.01c0.276-0.038,0.524-0.19,0.684-0.419l6.214-8.929   c0.315-0.453,0.204-1.076-0.25-1.392C53.117,41.862,52.495,41.975,52.179,42.429z" fill="#f79320"/>
	<path d="M47,34c-7.168,0-13,5.832-13,13s5.832,13,13,13s13-5.832,13-13S54.168,34,47,34z M47,58c-6.065,0-11-4.935-11-11   s4.935-11,11-11s11,4.935,11,11S53.065,58,47,58z" fill="#f79320"/>
	<path d="M28.555,33.532C29.223,34.451,30.301,35,31.438,35c0.95,0,1.845-0.371,2.518-1.044c0.737-0.737,1.114-1.756,1.033-2.797   s-0.612-1.99-1.459-2.606l-12.944-9.363c-0.396-0.286-0.945-0.242-1.293,0.104c-0.348,0.348-0.391,0.896-0.104,1.293L28.555,33.532   z" fill="#f79320"/>
	<path d="M34.997,57.544C33.374,57.838,31.706,58,30,58C14.561,58,2,45.439,2,30c0-7.46,2.9-14.479,8.166-19.764   c0.391-0.392,0.389-1.024-0.002-1.414C9.772,8.434,9.14,8.434,8.75,8.824C3.107,14.486,0,22.007,0,30c0,16.542,13.458,30,30,30   c2.307,0,4.551-0.271,6.71-0.766C36.096,58.716,35.528,58.147,34.997,57.544z" fill="#f79320"/>
	<path d="M30,15.292c0.553,0,1-0.447,1-1V2.018C45.979,2.546,58,14.896,58,30c0,1.706-0.162,3.375-0.456,4.997   c0.603,0.531,1.172,1.099,1.69,1.713C59.729,34.551,60,32.307,60,30C60,13.458,46.542,0,30,0c-0.553,0-1,0.447-1,1v13.292   C29,14.845,29.447,15.292,30,15.292z" fill="#f79320"/>
</g>
<g>
</g>
<g>
</g>
<g>
</g>
<g>
</g>
<g>
</g>
<g>
</g>
<g>
</g>
<g>
</g>
<g>
</g>
<g>
</g>
<g>
</g>
<g>
</g>
<g>
</g>
<g>
</g>
<g>
</g>
</svg>
